<?xml version="1.0" encoding="iso-8859-1"?>
<!-- Generator: Adobe Illustrator 18.0.0, SVG Export Plug-In . SVG Version: 6.00 Build 0)  -->
<!DOCTYPE svg PUBLIC "-//W3C//DTD SVG 1.1//EN" "http://www.w3.org/Graphics/SVG/1.1/DTD/svg11.dtd">
<svg version="1.1" id="Capa_1" xmlns="http://www.w3.org/2000/svg" xmlns:xlink="http://www.w3.org/1999/xlink" x="0px" y="0px"
	 viewBox="0 0 57.5 57.5" style="enable-background:new 0 0 57.5 57.5;" xml:space="preserve">
<g>
	<g>
		<path style="fill:#EEAF4B;" d="M52.489,34.154C51.858,34.248,51.192,34.3,50.5,34.3c-1.836,0-3.497-0.359-4.744-0.937
			C44.507,33.942,42.839,34.3,41,34.3c-2.234,0-4.218-0.525-5.5-1.34c-1.282,0.815-3.266,1.34-5.5,1.34
			c-2.551,0-4.777-0.685-6-1.704c-1.223,1.019-3.449,1.704-6,1.704c-2.234,0-4.218-0.525-5.5-1.34C11.218,33.775,9.234,34.3,7,34.3
			c-0.882,0-1.723-0.085-2.5-0.234c0,0.342,0,0.681,0,0.734c0,4.142,3.358,7.5,7.5,7.5h33c4.142,0,7.5-3.358,7.5-7.5
			c0-0.113-0.012-0.223-0.017-0.334C52.485,34.448,52.487,34.317,52.489,34.154z"/>
	</g>
	<path style="fill:#7A3726;" d="M52.485,27.445C52.409,28.477,51.55,29.3,50.5,29.3h-3.185C47.75,29.755,48,30.262,48,30.8
		c0,1.014-0.867,1.924-2.244,2.563c1.247,0.579,2.908,0.937,4.744,0.937c3.866,0,7-1.567,7-3.5
		C57.5,29.212,55.383,27.873,52.485,27.445z"/>
	<path style="fill:#C56458;" d="M36.298,29.3C36.735,29.756,37,30.26,37,30.8c0,0.816-0.563,1.565-1.5,2.16
		c1.282,0.815,3.266,1.34,5.5,1.34c3.866,0,7-1.567,7-3.5c0-0.538-0.25-1.045-0.683-1.5H36.298z"/>
	<path style="fill:#EEAF4B;" d="M52.5,22.8c0-4.142-3.358-7.5-7.5-7.5c-2.176,0-4.13,0.933-5.5,2.413
		C38.13,16.232,36.176,15.3,34,15.3s-4.13,0.933-5.5,2.413C27.13,16.232,25.176,15.3,23,15.3s-4.13,0.933-5.5,2.413
		C16.13,16.232,14.176,15.3,12,15.3c-4.142,0-7.5,3.358-7.5,7.5c0,0.113,0.012,0.223,0.017,0.334C4.512,23.19,4.5,23.243,4.5,23.3v4
		c0,1.1,0.9,2,2,2h44c1.1,0,2-0.9,2-2v-4c0-0.057-0.012-0.11-0.017-0.166C52.488,23.022,52.5,22.913,52.5,22.8z"/>
	<path style="fill:#7A3726;" d="M6.5,29.3c-1.021,0-1.861-0.779-1.977-1.77C1.882,28.03,0,29.303,0,30.8c0,1.933,3.134,3.5,7,3.5
		s7-1.567,7-3.5c0-0.538-0.25-1.045-0.683-1.5H6.5z"/>
	<path style="fill:#C56458;" d="M13.298,29.3C13.735,29.756,14,30.26,14,30.8c0,0.816-0.563,1.565-1.5,2.16
		c1.282,0.815,3.266,1.34,5.5,1.34c3.866,0,7-1.567,7-3.5c0-0.538-0.25-1.045-0.683-1.5H13.298z"/>
	<path style="fill:#7A3726;" d="M24.305,29.3C24.742,29.755,25,30.261,25,30.8c0,0.658-0.369,1.27-1,1.796
		c1.223,1.019,3.449,1.704,6,1.704c3.866,0,7-1.567,7-3.5c0-0.538-0.25-1.045-0.683-1.5H24.305z"/>
	<circle style="fill:#FBD490;" cx="11" cy="37.3" r="1"/>
	<circle style="fill:#FBD490;" cx="16" cy="39.3" r="1"/>
	<circle style="fill:#FBD490;" cx="20" cy="37.3" r="1"/>
	<circle style="fill:#FBD490;" cx="23" cy="39.3" r="1"/>
	<circle style="fill:#FBD490;" cx="27" cy="37.3" r="1"/>
	<circle style="fill:#FBD490;" cx="31" cy="39.3" r="1"/>
	<circle style="fill:#FBD490;" cx="35" cy="36.3" r="1"/>
	<circle style="fill:#FBD490;" cx="38" cy="39.3" r="1"/>
	<circle style="fill:#FBD490;" cx="43" cy="37.3" r="1"/>
	<circle style="fill:#FBD490;" cx="47" cy="38.3" r="1"/>
	<path style="fill:#FBD490;" d="M15.921,24.7c-0.553,0-1-0.447-1-1c0-4.687,3.813-8.5,8.5-8.5c0.553,0,1,0.447,1,1s-0.447,1-1,1
		c-3.584,0-6.5,2.916-6.5,6.5C16.921,24.253,16.474,24.7,15.921,24.7z"/>
	<path style="fill:#FBD490;" d="M26.5,24.797c-0.553,0-1-0.447-1-1c0-4.687,3.813-8.5,8.5-8.5c0.553,0,1,0.447,1,1s-0.447,1-1,1
		c-3.584,0-6.5,2.916-6.5,6.5C27.5,24.35,27.053,24.797,26.5,24.797z"/>
	<g>
		<path style="fill:#EEAF4B;" d="M37.5,23.797c0-4.142,3.358-7.5,7.5-7.5"/>
		<path style="fill:#FBD490;" d="M37.5,24.797c-0.553,0-1-0.447-1-1c0-4.687,3.813-8.5,8.5-8.5c0.553,0,1,0.447,1,1s-0.447,1-1,1
			c-3.584,0-6.5,2.916-6.5,6.5C38.5,24.35,38.053,24.797,37.5,24.797z"/>
	</g>
	<path style="fill:#88C057;" d="M14.5,27.3c-0.2,0-0.392,0.018-0.578,0.044C13.728,26.74,13.168,26.3,12.5,26.3
		c-0.198,0-0.385,0.04-0.558,0.11c-0.173-0.638-0.75-1.11-1.442-1.11c-0.678,0-1.245,0.453-1.43,1.071
		C8.886,26.328,8.697,26.3,8.5,26.3c-0.533,0-1.025,0.17-1.431,0.454C6.639,26.474,6.098,26.3,5.5,26.3c-1.381,0-2.5,0.895-2.5,2
		c0,1.104,1.119,2,2.5,2c0.321,0,0.625-0.053,0.906-0.141C6.852,30.844,7.621,31.3,8.5,31.3c0.488,0,0.941-0.146,1.326-0.388
		C10.156,31.153,10.56,31.3,11,31.3c0.88,0,1.62-0.573,1.887-1.363C13.323,30.16,13.882,30.3,14.5,30.3c1.381,0,2.5-0.672,2.5-1.5
		S15.881,27.3,14.5,27.3z"/>
	<path style="fill:#88C057;" d="M26.5,27.3c-0.2,0-0.392,0.018-0.578,0.044C25.728,26.74,25.168,26.3,24.5,26.3
		c-0.198,0-0.385,0.04-0.558,0.11c-0.173-0.638-0.75-1.11-1.442-1.11c-0.678,0-1.245,0.453-1.43,1.071
		c-0.184-0.043-0.373-0.071-0.57-0.071c-0.533,0-1.025,0.17-1.431,0.454c-0.43-0.28-0.971-0.454-1.569-0.454
		c-1.381,0-2.5,0.895-2.5,2c0,1.104,1.119,2,2.5,2c0.321,0,0.625-0.053,0.906-0.141c0.446,0.685,1.215,1.141,2.094,1.141
		c0.488,0,0.941-0.146,1.326-0.388C22.156,31.153,22.56,31.3,23,31.3c0.88,0,1.62-0.573,1.887-1.363
		C25.323,30.16,25.882,30.3,26.5,30.3c1.381,0,2.5-0.672,2.5-1.5S27.881,27.3,26.5,27.3z"/>
	<path style="fill:#88C057;" d="M39.5,27.3c-0.2,0-0.392,0.018-0.578,0.044C38.728,26.74,38.168,26.3,37.5,26.3
		c-0.198,0-0.385,0.04-0.558,0.11c-0.173-0.638-0.75-1.11-1.442-1.11c-0.678,0-1.245,0.453-1.43,1.071
		c-0.184-0.043-0.373-0.071-0.57-0.071c-0.533,0-1.025,0.17-1.431,0.454c-0.43-0.28-0.971-0.454-1.569-0.454
		c-1.381,0-2.5,0.895-2.5,2c0,1.104,1.119,2,2.5,2c0.321,0,0.625-0.053,0.906-0.141c0.446,0.685,1.215,1.141,2.094,1.141
		c0.488,0,0.941-0.146,1.326-0.388C35.156,31.153,35.56,31.3,36,31.3c0.88,0,1.62-0.573,1.887-1.363
		C38.323,30.16,38.882,30.3,39.5,30.3c1.381,0,2.5-0.672,2.5-1.5S40.881,27.3,39.5,27.3z"/>
	<path style="fill:#88C057;" d="M52.5,27.3c-0.2,0-0.392,0.018-0.578,0.044C51.728,26.74,51.168,26.3,50.5,26.3
		c-0.198,0-0.385,0.04-0.558,0.11c-0.173-0.638-0.75-1.11-1.442-1.11c-0.678,0-1.245,0.453-1.43,1.071
		c-0.184-0.043-0.373-0.071-0.57-0.071c-0.533,0-1.025,0.17-1.431,0.454c-0.43-0.28-0.971-0.454-1.569-0.454
		c-1.381,0-2.5,0.895-2.5,2c0,1.104,1.119,2,2.5,2c0.321,0,0.625-0.053,0.906-0.141c0.446,0.685,1.215,1.141,2.094,1.141
		c0.488,0,0.941-0.146,1.326-0.388C48.156,31.153,48.56,31.3,49,31.3c0.88,0,1.62-0.573,1.887-1.363
		C51.323,30.16,51.882,30.3,52.5,30.3c1.381,0,2.5-0.672,2.5-1.5S53.881,27.3,52.5,27.3z"/>
</g>
<g>
</g>
<g>
</g>
<g>
</g>
<g>
</g>
<g>
</g>
<g>
</g>
<g>
</g>
<g>
</g>
<g>
</g>
<g>
</g>
<g>
</g>
<g>
</g>
<g>
</g>
<g>
</g>
<g>
</g>
</svg>
